ply
format ascii 1.0
element vertex 104
property double x
property double y
property double z
end_header
-3.499937973853613 -3.500130385842200 1.029301652371889
-3.500012727044784 -4.500062427844163 0.994631530298214
-3.500726309007938 -2.499433077190566 1.261250572469636
-2.501406592400003 -1.498833839788359 1.671041297692140
-2.500963523567672 1.500727043833167 1.666113635422311
-2.502221876107664 0.501793787281526 1.744056887910942
-2.500570751459671 -0.499575426768441 1.742427469766414
-1.500107225663947 -4.499972121728369 1.100649198911804
-1.499244122561585 3.499329982088050 1.434994942781034
-1.501285957389088 2.500995220407316 1.668174679201247
-1.499255947661363 -1.500739831824690 1.824296874953993
-1.499182693785747 -0.500786378213813 1.903117127166070
-0.498972167775737 4.499112576359486 1.189061328306753
-0.498531371105762 -3.501507513754324 1.507848643831773
-0.499693588899037 2.499681697619024 1.751697543706236
-0.499951031274534 -1.500115970021554 1.901459128573093
-0.499651151874075 0.499627583571756 1.982330731622589
0.498440822602843 4.501234994716603 1.192963916047403
0.501498565289134 -4.501614184661555 1.179395618783176
0.497087264546839 3.502405504673466 1.512854379552452
0.501858464526318 -3.501936900365726 1.506903294883002
0.498782572098438 2.500993529423387 1.750245639330921
0.499147921824228 -2.499236070458812 1.742605809560698
0.499811213839247 1.500105701108558 1.904782365147506
0.500796571254951 0.499213185560992 1.979738294920975
0.501104704356605 -1.501119805699085 1.903634606623626
0.500911957614505 -0.500915861941433 1.981831672847074
1.499248703081312 4.500580415361192 1.111891644932159
1.499610704996466 3.500277468054212 1.431294784947497
1.499606259446362 2.500283897142705 1.672892303797250
1.501874133741244 -2.501947367599424 1.668522367440427
1.499510614664300 1.500380911360237 1.825540089699531
1.499570279630531 -1.499649127636839 1.828646526472054
1.499655304110712 0.500254288475594 1.905767719188458
1.499487678782007 -0.499579679378466 1.908123048268198
2.499769424907571 4.500139613183393 1.004686978820395
2.502058429380106 -4.502303062025847 1.002550482507588
2.497162187996938 3.502467847809116 1.267726911318381
2.501551446359950 -3.501702037371755 1.268688471087343
2.501445189057052 2.498620142953702 1.514125873913864
2.498568922164760 1.501268150897598 1.674304775827176
3.499556792554524 4.500336764462466 1.005402163462641
3.500450014676407 3.499528110981700 1.045902440683050
3.501023169699533 -4.501208832293346 1.000149658894412
3.501795124263272 -3.502006825165349 1.027172853328518
3.499822827094722 0.500106070706965 1.517092879158114
3.501574674117671 -0.501641212913951 1.511086136529086
4.500005919477414 4.499936307207927 1.009500924854315
4.500918650157624 2.499060070767875 1.013001132429126
4.502839515532382 -3.503210223729120 1.004927858558409
4.499699287939432 0.500235697961002 1.190047887747833
4.500283100986989 -1.500369652224329 1.104456247393150
1.499987272955215 -5.500062427844162 0.994631530298214
1.499541288790820 -4.499663088432095 1.094196688961403
1.499493152317334 -3.499630132167502 1.428405855638132
2.499721896962287 -2.499824406769807 1.507415267408482
2.499642897524661 -1.499760155850563 1.666767161787556
2.499467993865514 0.500369592120076 1.747090028582382
2.498967716921691 -0.499200452513518 1.741834403686662
3.499868265739834 -5.499947272297193 0.995306327163393
3.500163400949222 -2.500214446002277 1.265487650300912
3.499162348795540 2.500610065810344 1.269562335556964
3.498865993073450 -1.499068914216195 1.427498964102309
3.499640989502953 1.500235030325645 1.433491697110780
4.500335314193126 3.499667882300802 1.002767858957445
4.501447365131013 -2.501412284465023 1.000027098051085
4.501788580100810 -4.501819134228401 0.997861159461767
4.499134187195823 1.500667763858785 1.108071810128922
4.499188526645410 -0.499348098141538 1.188934737132705
5.499140994971428 3.500653656450732 1.007275579934312
5.499512723818153 2.500349487436852 1.005211358214720
5.498839762954806 1.500942431788216 1.004434897193283
5.498298956206723 0.501444371824761 1.001441783846552
5.498915920627022 -0.499082413301786 1.002415791273594
5.499689049018995 -1.499777959747029 1.001365858849734
5.500509120626522 -2.500551579869431 1.003456576346709
5.500732852989948 -3.500787514176595 1.001746700378402
5.500030890581378 -4.500103075392689 0.999163714123513
5.500810216320914 -5.500906097852005 0.994089400248653
6.499168560675431 3.500647514519279 1.013586764221258
6.501197222263008 2.498895725853782 1.002845473693927
6.498290925530818 1.501455769701869 1.007596489744684
6.498395658503478 0.501395484894822 1.001612262284402
6.501814184733659 -0.501755102230986 1.001006912252253
6.499986929756138 -1.500053026977514 0.998757383867468
6.499535883227178 -2.499617063904260 0.999446153125847
6.501303876905121 -3.501375779110644 1.003099911402000
7.499769424907570 3.500139613183392 1.004686978820395
7.499628292860542 2.500271485262988 1.003162879117513
7.498986700675252 1.500860510215402 1.009753833007315
7.499189141805872 0.500693238453141 1.002455013401389
7.501402178740795 -4.501551987817302 1.000055609220815
7.502058429380110 -5.502303062025844 1.002550482507588
8.499556792554525 3.500336764462465 1.005402163462641
8.500377721774971 2.499590826367254 1.009501308021687
8.500672749225311 -0.500724930567763 1.007012286483145
8.500448777088700 -1.500519044082565 1.002823818092923
8.501645567868161 -4.501845033633969 1.001481425143471
8.501023169699536 -5.501208832293347 1.000149658894412
9.500005919477410 3.499936307207927 1.009500924854315
9.500918650157628 1.499060070767875 1.013001132429126
9.501446880726887 -0.501512771678959 1.002308115816374
9.500883096486724 -2.500997538796526 1.000840468856700
9.502839515532386 -4.503210223729120 1.004927858558409
